<svg xmlns="http://www.w3.org/2000/svg" width="90.694" height="80.591" viewBox="0 0 90.694 80.591"><g transform="translate(0 0)"><path d="M90.694,88.25V20.48H0V88.25H28.342v9.158H20.784v3.663H69.91V97.408H62.352V88.25H90.694ZM3.779,24.143H86.915V73.6H3.779ZM58.573,97.408H32.121V88.25H58.573ZM3.779,84.587V77.26H86.915v7.326Z" transform="translate(0 -20.48)" fill="#5c2ddf"/></g><g transform="translate(56.684 7.558)"><rect width="24.563" height="3.779" fill="#5c2ddf"/></g><g transform="translate(43.458 7.558)"><rect width="9.447" height="3.779" fill="#5c2ddf"/></g><g transform="translate(35.9 7.558)"><rect width="3.779" height="3.779" fill="#5c2ddf"/></g><g transform="translate(28.342 7.558)"><rect width="3.779" height="3.779" fill="#5c2ddf"/></g><g transform="translate(58.573 34.748)"><rect width="22.674" height="3.779" fill="#5c2ddf"/></g><g transform="translate(51.016 34.748)"><rect width="3.779" height="3.779" fill="#5c2ddf"/></g><g transform="translate(43.458 34.748)"><rect width="3.779" height="3.779" fill="#5c2ddf"/></g><g transform="translate(62.352 25.604)"><rect width="18.895" height="3.779" fill="#5c2ddf"/></g><g transform="translate(35.9 25.604)"><rect width="22.674" height="3.779" fill="#5c2ddf"/></g><g transform="translate(41.568 16.46)"><rect width="7.558" height="3.779" fill="#5c2ddf"/></g><g transform="translate(52.905 16.46)"><rect width="28.342" height="3.779" fill="#5c2ddf"/></g><g transform="translate(9.447 16.46)"><rect width="28.342" height="3.779" fill="#5c2ddf"/></g><g transform="translate(45.347 43.893)"><rect width="35.9" height="3.779" fill="#5c2ddf"/></g><g transform="translate(29.84 32.347)"><path d="M164.392,202.68l-2.672,2.672L167,210.629l-5.277,5.277,2.672,2.672,7.949-7.949Z" transform="translate(-161.72 -202.68)" fill="#5c2ddf"/></g><g transform="translate(6.776 32.347)"><path d="M47.341,205.352l-2.672-2.672-7.949,7.949,7.949,7.949,2.672-2.672-5.277-5.277Z" transform="translate(-36.72 -202.68)" fill="#5c2ddf"/></g><g transform="translate(18.088 30.15)"><g transform="translate(0 0)"><rect width="20.349" height="3.779" transform="translate(0 18.896) rotate(-68.217)" fill="#5c2ddf"/></g></g></svg>