<svg xmlns="http://www.w3.org/2000/svg" width="93.22" height="93.115" viewBox="0 0 93.22 93.115"><g transform="translate(0 0)"><path d="M93.22,79.8V11.825H73.561C76.471,7.087,78,2.954,76.139,1.094,72.866-2.181,62.574,5.008,54.3,11.825H0V79.8H29.131v9.71H21.363v3.884H71.857V89.508H64.089V79.8ZM73.135,4.1c-.781,3.889-10.35,17.235-20.608,27.493a71.9,71.9,0,0,1-5.407,4.938L40.7,30.113a71.891,71.891,0,0,1,4.938-5.406C55.9,14.448,69.249,4.879,73.135,4.1ZM43.941,38.842a14.09,14.09,0,0,1-2.53,1.3c-1.706.629-2.647.388-3.413-.217a8.287,8.287,0,0,0-.923-.985,3.409,3.409,0,0,1,.018-3.115,14.125,14.125,0,0,1,1.3-2.53ZM3.884,15.709H49.73c-3.954,3.465-6.747,6.165-6.834,6.252-5.161,5.16-8.252,9.256-9.449,12.524a9.645,9.645,0,0,0-.566,2.456,7.44,7.44,0,0,0-2.213-.026c-7.015,1.055-8.119,8.986-8.163,9.324A9.2,9.2,0,0,1,17.38,53.56a2.168,2.168,0,0,0-1.212,2.157,2.193,2.193,0,0,0,1.625,1.907,23.954,23.954,0,0,0,6.022.82A16.6,16.6,0,0,0,38.2,50.471a9.646,9.646,0,0,0,1.574-6.092,9.2,9.2,0,0,0,2.971-.592c3.268-1.2,7.364-4.289,12.525-9.45A189.265,189.265,0,0,0,70.981,15.709H89.336V64.261H3.884ZM34.931,48.378a12.751,12.751,0,0,1-12.292,6.135,13.078,13.078,0,0,0,3.719-7.771c.03-.219.783-5.369,4.889-5.987a3.834,3.834,0,0,1,2.939.824,7.857,7.857,0,0,0,.685.783c.079.079.167.133.247.207a4.756,4.756,0,0,1,.546,1A5.47,5.47,0,0,1,34.931,48.378ZM60.2,89.508H33.015V79.8H60.2ZM3.884,75.913V68.145H89.336v7.768Z" transform="translate(0 -0.277)" fill="#5c2ddf"/></g></svg>