<svg xmlns="http://www.w3.org/2000/svg" width="93.22" height="93.22" viewBox="0 0 93.22 93.22"><path d="M93.22,79.625V0H0V79.625H29.131v9.71H21.363V93.22H71.857V89.336H64.089v-9.71ZM3.884,3.884H89.336V66.031H3.884ZM60.2,89.336H33.015v-9.71H60.2ZM3.884,75.741V69.915H89.336v5.826Z" fill="#5c2ddf"/><g transform="translate(7.768 7.768)"><path d="M40.96,40.96V70.091h36.9V40.96Zm29.222,3.884L59.41,53.082,48.638,44.844ZM44.844,46.831l11.37,8.694L44.844,64.22Zm3.794,19.376L59.41,57.97l10.772,8.238ZM73.975,64.22l-11.37-8.694,11.37-8.694Z" transform="translate(-40.96 -40.96)" fill="#5c2ddf"/></g><g transform="translate(48.552 7.768)"><path d="M256,40.96V70.091h36.9V40.96Zm29.222,3.884L274.45,53.082l-10.772-8.238Zm-25.338,1.987,11.37,8.694-11.37,8.694Zm3.794,19.376L274.45,57.97l10.772,8.238Zm25.338-1.987-11.37-8.694,11.37-8.694Z" transform="translate(-256 -40.96)" fill="#5c2ddf"/></g><g transform="translate(7.768 40.784)"><path d="M40.96,215.04V236.4h77.683V215.04Zm73.8,17.479H44.844V218.924h69.915Z" transform="translate(-40.96 -215.04)" fill="#5c2ddf"/></g></svg>