<svg xmlns="http://www.w3.org/2000/svg" width="91.633" height="91.633" viewBox="0 0 91.633 91.633"><path d="M91.633,78.27V0H0V78.27H28.635v9.545H21v3.818H70.634V87.815H63V78.27ZM3.818,3.818h84V63h-84Zm55.362,84H32.453V78.27H59.18ZM3.818,74.452V66.816h84v7.636Z" fill="#5c2ddf"/><g transform="translate(9.545 9.545)"><path d="M118.016,51.2a5.733,5.733,0,0,0-5.727,5.727,5.662,5.662,0,0,0,.574,2.454l-9.574,9.574A5.653,5.653,0,0,0,95.459,72.2H81.393a5.708,5.708,0,1,0-10.529,4.362L59.381,88.046a5.662,5.662,0,0,0-2.454-.574A5.727,5.727,0,1,0,62.654,93.2a5.662,5.662,0,0,0-.573-2.453L73.563,79.261a5.653,5.653,0,0,0,7.829-3.244H95.459a5.708,5.708,0,1,0,10.529-4.363l9.574-9.574a5.662,5.662,0,0,0,2.454.574,5.727,5.727,0,0,0,0-11.454ZM56.927,95.108A1.909,1.909,0,1,1,58.836,93.2,1.911,1.911,0,0,1,56.927,95.108Zm19.09-19.09a1.909,1.909,0,1,1,1.909-1.909A1.911,1.911,0,0,1,76.017,76.017Zm24.817,0a1.909,1.909,0,1,1,1.909-1.909A1.911,1.911,0,0,1,100.835,76.017Zm17.181-17.181a1.909,1.909,0,1,1,1.909-1.909A1.911,1.911,0,0,1,118.016,58.836Z" transform="translate(-51.2 -51.2)" fill="#5c2ddf"/></g></svg>