<?xml version="1.0" standalone="no"?>
<svg
  width="600"
  height="600"
  viewBox="0 0 600 600"
  xmlns="http://www.w3.org/2000/svg"
>
  <g transform="translate(300,300)">
    <path d="M132.7,-183C171.4,-154.6,201.7,-115,217.5,-69.9C233.3,-24.7,234.6,26,220.8,72.8C207,119.6,178.2,162.5,138.8,194.4C99.5,226.3,49.8,247.2,2.7,243.4C-44.3,239.6,-88.6,211.2,-136,182C-183.3,152.7,-233.9,122.5,-248.6,80.1C-263.4,37.6,-242.5,-17.2,-218,-64C-193.4,-110.8,-165.2,-149.7,-128.2,-178.7C-91.3,-207.7,-45.7,-226.8,0.7,-227.8C47,-228.7,94,-211.4,132.7,-183Z" fill="#7c4dff" />
  </g>
</svg>
  